<?xml version="1.0" encoding="UTF-8" standalone="no"?>
<!-- Created with Inkscape (http://www.inkscape.org/) -->

<svg
   width="16"
   height="16"
   viewBox="0 0 4.2333361 4.2333349"
   version="1.1"
   id="svg8"
   inkscape:version="1.1.1 (3bf5ae0d25, 2021-09-20)"
   sodipodi:docname="favicon.svg"
   xmlns:inkscape="http://www.inkscape.org/namespaces/inkscape"
   xmlns:sodipodi="http://sodipodi.sourceforge.net/DTD/sodipodi-0.dtd"
   xmlns="http://www.w3.org/2000/svg"
   xmlns:svg="http://www.w3.org/2000/svg"
   xmlns:rdf="http://www.w3.org/1999/02/22-rdf-syntax-ns#"
   xmlns:cc="http://creativecommons.org/ns#"
   xmlns:dc="http://purl.org/dc/elements/1.1/">
  <defs
     id="defs2">
    <inkscape:path-effect
       effect="spiro"
       id="path-effect1113"
       is_visible="true"
       lpeversion="0" />
    <inkscape:path-effect
       effect="spiro"
       id="path-effect1109"
       is_visible="true"
       lpeversion="0" />
    <inkscape:path-effect
       effect="spiro"
       id="path-effect1020"
       is_visible="true"
       lpeversion="0" />
    <inkscape:path-effect
       effect="spiro"
       id="path-effect1016"
       is_visible="true"
       lpeversion="0" />
    <inkscape:path-effect
       effect="spiro"
       id="path-effect1012"
       is_visible="true"
       lpeversion="0" />
    <inkscape:path-effect
       effect="spiro"
       id="path-effect1008"
       is_visible="true"
       lpeversion="0" />
    <inkscape:path-effect
       effect="spiro"
       id="path-effect999"
       is_visible="true"
       lpeversion="0" />
    <inkscape:path-effect
       effect="spiro"
       id="path-effect993"
       is_visible="true"
       lpeversion="0" />
    <inkscape:path-effect
       effect="spiro"
       id="path-effect989"
       is_visible="true"
       lpeversion="0" />
    <inkscape:path-effect
       effect="spiro"
       id="path-effect985"
       is_visible="true"
       lpeversion="0" />
    <inkscape:path-effect
       effect="spiro"
       id="path-effect981"
       is_visible="true"
       lpeversion="0" />
    <inkscape:path-effect
       effect="spiro"
       id="path-effect975"
       is_visible="true"
       lpeversion="0" />
    <inkscape:path-effect
       effect="spiro"
       id="path-effect971"
       is_visible="true"
       lpeversion="0" />
    <inkscape:path-effect
       effect="spiro"
       id="path-effect1012-4"
       is_visible="true"
       lpeversion="0" />
    <inkscape:path-effect
       effect="spiro"
       id="path-effect1016-2"
       is_visible="true"
       lpeversion="0" />
    <inkscape:path-effect
       effect="spiro"
       id="path-effect1020-2"
       is_visible="true"
       lpeversion="0" />
    <inkscape:path-effect
       effect="spiro"
       id="path-effect1008-6"
       is_visible="true"
       lpeversion="0" />
  </defs>
  <sodipodi:namedview
     id="base"
     pagecolor="#ffffff"
     bordercolor="#666666"
     borderopacity="1.0"
     inkscape:pageopacity="0.0"
     inkscape:pageshadow="2"
     inkscape:zoom="11.313708"
     inkscape:cx="5.3916892"
     inkscape:cy="-6.4965436"
     inkscape:document-units="mm"
     inkscape:current-layer="layer1"
     showgrid="false"
     inkscape:window-width="1920"
     inkscape:window-height="1017"
     inkscape:window-x="-8"
     inkscape:window-y="-8"
     inkscape:window-maximized="1"
     showguides="false"
     inkscape:pagecheckerboard="0"
     units="px" />
  <metadata
     id="metadata5">
    <rdf:RDF>
      <cc:Work
         rdf:about="">
        <dc:format>image/svg+xml</dc:format>
        <dc:type
           rdf:resource="http://purl.org/dc/dcmitype/StillImage" />
      </cc:Work>
    </rdf:RDF>
  </metadata>
  <g
     inkscape:label="Layer 1"
     inkscape:groupmode="layer"
     id="layer1">
    <rect
       style="fill:#ffffff;fill-opacity:1;stroke:none;stroke-width:0.0157949"
       id="rect2144"
       width="4.2252722"
       height="4.2322698"
       x="0.0081686229"
       y="-0.0077403449"
       ry="0.047364939" />
    <path
       style="vector-effect:none;fill:#040404;fill-opacity:1;fill-rule:nonzero;stroke:none;stroke-width:0.000102739;stroke-linecap:round;stroke-linejoin:round;stroke-miterlimit:4;stroke-dasharray:none;stroke-dashoffset:0;stroke-opacity:1;paint-order:stroke fill markers"
       d="m 4.0662903,1.5005166 c -0.012985,0.00705 -0.026144,0.016407 -0.034005,0.021166 -0.014848,0.00785 -0.035017,0.02231 -0.059388,0.035772 C 3.8389651,1.6462078 3.6837423,1.7063184 3.5257202,1.7494962 3.3086806,1.80742 3.0873692,1.8535127 2.8638744,1.8802097 2.6445007,1.9074634 2.4223538,1.9128122 2.2001067,1.9199188 1.983884,1.9250674 1.7664981,1.9261595 1.5516846,1.8969323 1.403303,1.8786523 1.2553394,1.848814 1.105451,1.8423186 0.99848083,1.8405004 0.890135,1.8415384 0.78662306,1.8667617 0.6144691,1.9044166 0.44624351,1.9782702 0.33066954,2.1035955 c -0.0215438,0.027402 -0.0449146,0.056639 -0.0566549,0.082648 -0.0336294,0.062492 -0.0529158,0.132326 -0.0535721,0.2027908 7.931e-4,0.022233 0.0331801,0.035258 0.0507565,0.020569 0.0134556,-0.013151 0.0233949,-0.029835 0.0380503,-0.042389 0.0250866,-0.02374 0.0508655,-0.040223 0.0818193,-0.052284 0.0996711,-0.037605 0.21279688,-0.031459 0.31757756,-0.010817 0.16367106,0.036438 0.3149658,0.1089964 0.4730117,0.1617481 0.3689765,0.1248444 0.7528325,0.2134053 1.1420103,0.2490084 0.1340577,0.011364 0.2687901,0.018072 0.4028391,0.010681 0.107854,-0.00402 0.2161168,-0.00865 0.321873,-0.028028 0.1671032,-0.027032 0.3311681,-0.082861 0.4626053,-0.1821107 0.062274,-0.046487 0.1157554,-0.1023298 0.1653049,-0.1602219 0.011635,-0.01306 0.020088,-0.030425 0.00421,-0.047018 -0.016099,-0.01685 -0.06152,0.00583 -0.085849,0.016148 -0.084914,0.043664 -0.185962,0.069598 -0.2845014,0.052293 C 3.2546177,2.3652473 3.2024866,2.3378238 3.1638344,2.2986171 3.3605871,2.1836042 3.5453848,2.0515123 3.7137534,1.9031635 3.8377386,1.7948231 3.9566326,1.6815204 4.072209,1.5655245 c 0.00871,-0.01147 0.019747,-0.022233 0.025482,-0.030572 0.00918,-0.011106 0.016839,-0.028988 0.00967,-0.039057 -0.00993,-0.00948 -0.029432,-0.00156 -0.04145,0.00442 z"
       id="path2248"
       inkscape:connector-curvature="0"
       sodipodi:nodetypes="cccccccccccccccccccccccccccccccc" />
  </g>
</svg>
