<?xml version="1.0" encoding="UTF-8" standalone="no"?>
<!-- Created with Inkscape (http://www.inkscape.org/) -->

<svg
   width="90"
   height="64"
   viewBox="0 0 23.812516 16.933334"
   version="1.1"
   id="svg8"
   inkscape:version="1.1.1 (3bf5ae0d25, 2021-09-20)"
   sodipodi:docname="logo-solo.svg"
   xmlns:inkscape="http://www.inkscape.org/namespaces/inkscape"
   xmlns:sodipodi="http://sodipodi.sourceforge.net/DTD/sodipodi-0.dtd"
   xmlns="http://www.w3.org/2000/svg"
   xmlns:svg="http://www.w3.org/2000/svg"
   xmlns:rdf="http://www.w3.org/1999/02/22-rdf-syntax-ns#"
   xmlns:cc="http://creativecommons.org/ns#"
   xmlns:dc="http://purl.org/dc/elements/1.1/">
  <defs
     id="defs2">
    <inkscape:path-effect
       effect="spiro"
       id="path-effect1113"
       is_visible="true"
       lpeversion="0" />
    <inkscape:path-effect
       effect="spiro"
       id="path-effect1109"
       is_visible="true"
       lpeversion="0" />
    <inkscape:path-effect
       effect="spiro"
       id="path-effect1020"
       is_visible="true"
       lpeversion="0" />
    <inkscape:path-effect
       effect="spiro"
       id="path-effect1016"
       is_visible="true"
       lpeversion="0" />
    <inkscape:path-effect
       effect="spiro"
       id="path-effect1012"
       is_visible="true"
       lpeversion="0" />
    <inkscape:path-effect
       effect="spiro"
       id="path-effect1008"
       is_visible="true"
       lpeversion="0" />
    <inkscape:path-effect
       effect="spiro"
       id="path-effect999"
       is_visible="true"
       lpeversion="0" />
    <inkscape:path-effect
       effect="spiro"
       id="path-effect993"
       is_visible="true"
       lpeversion="0" />
    <inkscape:path-effect
       effect="spiro"
       id="path-effect989"
       is_visible="true"
       lpeversion="0" />
    <inkscape:path-effect
       effect="spiro"
       id="path-effect985"
       is_visible="true"
       lpeversion="0" />
    <inkscape:path-effect
       effect="spiro"
       id="path-effect981"
       is_visible="true"
       lpeversion="0" />
    <inkscape:path-effect
       effect="spiro"
       id="path-effect975"
       is_visible="true"
       lpeversion="0" />
    <inkscape:path-effect
       effect="spiro"
       id="path-effect971"
       is_visible="true"
       lpeversion="0" />
    <inkscape:path-effect
       effect="spiro"
       id="path-effect1012-4"
       is_visible="true"
       lpeversion="0" />
    <inkscape:path-effect
       effect="spiro"
       id="path-effect1016-2"
       is_visible="true"
       lpeversion="0" />
    <inkscape:path-effect
       effect="spiro"
       id="path-effect1020-2"
       is_visible="true"
       lpeversion="0" />
    <inkscape:path-effect
       effect="spiro"
       id="path-effect1008-6"
       is_visible="true"
       lpeversion="0" />
  </defs>
  <sodipodi:namedview
     id="base"
     pagecolor="#ffffff"
     bordercolor="#666666"
     borderopacity="1.0"
     inkscape:pageopacity="0.0"
     inkscape:pageshadow="2"
     inkscape:zoom="0.5"
     inkscape:cx="-152"
     inkscape:cy="-37"
     inkscape:document-units="mm"
     inkscape:current-layer="layer1"
     showgrid="false"
     inkscape:window-width="1920"
     inkscape:window-height="1017"
     inkscape:window-x="-8"
     inkscape:window-y="-8"
     inkscape:window-maximized="1"
     showguides="false"
     inkscape:pagecheckerboard="0"
     units="px" />
  <metadata
     id="metadata5">
    <rdf:RDF>
      <cc:Work
         rdf:about="">
        <dc:format>image/svg+xml</dc:format>
        <dc:type
           rdf:resource="http://purl.org/dc/dcmitype/StillImage" />
      </cc:Work>
    </rdf:RDF>
  </metadata>
  <g
     inkscape:label="Layer 1"
     inkscape:groupmode="layer"
     id="layer1">
    <path
       style="fill:#1a1a1a;fill-opacity:1;fill-rule:nonzero;stroke:none;stroke-width:0.735559;stroke-linecap:round;stroke-linejoin:round;stroke-miterlimit:4;stroke-dasharray:none;stroke-dashoffset:0;stroke-opacity:1;paint-order:stroke fill markers"
       d="m 23.316148,4.0891873 c -0.07616,0.05117 -0.153541,0.1174103 -0.199984,0.1517576 -0.08771,0.057651 -0.205657,0.1591953 -0.349264,0.2567401 -0.785562,0.6315802 -1.706913,1.0842219 -2.649415,1.4274458 -1.29485,0.462272 -2.618437,0.8489198 -3.960144,1.1096817 -1.31676,0.2629033 -2.655632,0.384047 -3.994837,0.5160586 C 10.859175,7.6680733 9.5477953,7.7591037 8.2442824,7.6512389 7.3446477,7.5872322 6.4440109,7.4516801 5.5381396,7.4659763 4.8922831,7.4960505 4.2388397,7.545818 3.6208202,7.7495096 2.5915784,8.0620349 1.5953294,8.6095541 0.92974612,9.4729387 0.80657913,9.6606327 0.67311871,9.8602607 0.60892739,10.034661 0.42209264,10.455948 0.32316554,10.91955 0.33723791,11.380136 c 0.009233,0.145267 0.20900507,0.217562 0.31148973,0.114941 0.0781073,-0.09119 0.13380751,-0.20379 0.21891066,-0.291593 0.1451672,-0.164998 0.2967093,-0.282407 0.4804321,-0.373225 0.5918202,-0.284195 1.2759637,-0.287766 1.9134085,-0.193053 0.9967859,0.17461 1.9280245,0.590244 2.8950014,0.87373 2.2579234,0.672994 4.5964327,1.103059 6.9536217,1.185149 0.811747,0.02214 1.626416,0.01402 2.433301,-0.08569 0.649749,-0.06817 1.301743,-0.140247 1.93497,-0.307356 1.001409,-0.241257 1.977093,-0.66933 2.74505,-1.368458 0.363921,-0.327756 0.672429,-0.713217 0.956723,-1.1105443 0.06671,-0.08967 0.113566,-0.206615 0.01318,-0.308778 -0.101335,-0.104171 -0.369831,0.06178 -0.513905,0.138821 -0.501253,0.318 -1.104405,0.5264803 -1.70333,0.4515313 -0.337877,-0.05333 -0.659482,-0.2114163 -0.902574,-0.4528953 1.158056,-0.8273791 2.239552,-1.7617292 3.217772,-2.7958714 0.720602,-0.7556798 1.409247,-1.5418362 2.077203,-2.3442067 0.04999,-0.078911 0.113357,-0.1528791 0.146024,-0.2094442 0.0528,-0.075886 0.09423,-0.1956852 0.05058,-0.258769 -0.0621,-0.058372 -0.177644,0.00131 -0.248905,0.045201 z"
       id="path45712-7"
       inkscape:connector-curvature="0"
       sodipodi:nodetypes="cccccccccccccccccccccccccccccccc" />
  </g>
</svg>
