<?xml version="1.0" encoding="UTF-8" standalone="no"?>
<!-- Created with Inkscape (http://www.inkscape.org/) -->

<svg
   width="283"
   height="45"
   viewBox="0 0 74.877082 11.906257"
   version="1.1"
   id="svg8"
   inkscape:version="1.1.1 (3bf5ae0d25, 2021-09-20)"
   sodipodi:docname="logo-icon-word.svg"
   xmlns:inkscape="http://www.inkscape.org/namespaces/inkscape"
   xmlns:sodipodi="http://sodipodi.sourceforge.net/DTD/sodipodi-0.dtd"
   xmlns="http://www.w3.org/2000/svg"
   xmlns:svg="http://www.w3.org/2000/svg"
   xmlns:rdf="http://www.w3.org/1999/02/22-rdf-syntax-ns#"
   xmlns:cc="http://creativecommons.org/ns#"
   xmlns:dc="http://purl.org/dc/elements/1.1/">
  <defs
     id="defs2">
    <inkscape:path-effect
       effect="spiro"
       id="path-effect1113"
       is_visible="true"
       lpeversion="0" />
    <inkscape:path-effect
       effect="spiro"
       id="path-effect1109"
       is_visible="true"
       lpeversion="0" />
    <inkscape:path-effect
       effect="spiro"
       id="path-effect1020"
       is_visible="true"
       lpeversion="0" />
    <inkscape:path-effect
       effect="spiro"
       id="path-effect1016"
       is_visible="true"
       lpeversion="0" />
    <inkscape:path-effect
       effect="spiro"
       id="path-effect1012"
       is_visible="true"
       lpeversion="0" />
    <inkscape:path-effect
       effect="spiro"
       id="path-effect1008"
       is_visible="true"
       lpeversion="0" />
    <inkscape:path-effect
       effect="spiro"
       id="path-effect999"
       is_visible="true"
       lpeversion="0" />
    <inkscape:path-effect
       effect="spiro"
       id="path-effect993"
       is_visible="true"
       lpeversion="0" />
    <inkscape:path-effect
       effect="spiro"
       id="path-effect989"
       is_visible="true"
       lpeversion="0" />
    <inkscape:path-effect
       effect="spiro"
       id="path-effect985"
       is_visible="true"
       lpeversion="0" />
    <inkscape:path-effect
       effect="spiro"
       id="path-effect981"
       is_visible="true"
       lpeversion="0" />
    <inkscape:path-effect
       effect="spiro"
       id="path-effect975"
       is_visible="true"
       lpeversion="0" />
    <inkscape:path-effect
       effect="spiro"
       id="path-effect971"
       is_visible="true"
       lpeversion="0" />
    <inkscape:path-effect
       effect="spiro"
       id="path-effect1012-4"
       is_visible="true"
       lpeversion="0" />
    <inkscape:path-effect
       effect="spiro"
       id="path-effect1016-2"
       is_visible="true"
       lpeversion="0" />
    <inkscape:path-effect
       effect="spiro"
       id="path-effect1020-2"
       is_visible="true"
       lpeversion="0" />
    <inkscape:path-effect
       effect="spiro"
       id="path-effect1008-6"
       is_visible="true"
       lpeversion="0" />
  </defs>
  <sodipodi:namedview
     id="base"
     pagecolor="#ffffff"
     bordercolor="#666666"
     borderopacity="1.0"
     inkscape:pageopacity="0.0"
     inkscape:pageshadow="2"
     inkscape:zoom="1.4142136"
     inkscape:cx="55.154327"
     inkscape:cy="-3.1819804"
     inkscape:document-units="mm"
     inkscape:current-layer="layer1"
     showgrid="false"
     inkscape:window-width="1920"
     inkscape:window-height="1017"
     inkscape:window-x="-8"
     inkscape:window-y="-8"
     inkscape:window-maximized="1"
     showguides="false"
     inkscape:pagecheckerboard="0"
     units="px" />
  <metadata
     id="metadata5">
    <rdf:RDF>
      <cc:Work
         rdf:about="">
        <dc:format>image/svg+xml</dc:format>
        <dc:type
           rdf:resource="http://purl.org/dc/dcmitype/StillImage" />
      </cc:Work>
    </rdf:RDF>
  </metadata>
  <g
     inkscape:label="Layer 1"
     inkscape:groupmode="layer"
     id="layer1">
    <g
       aria-label="Makerline "
       transform="scale(0.8154154,1.2263688)"
       id="text"
       style="font-weight:bold;font-size:12.0147px;line-height:1.25;-inkscape-font-specification:'sans-serif Bold';letter-spacing:0px;word-spacing:0px;stroke-width:0.643645"
       inkscape:label="#text">
      <path
         d="M 36.234067,9.4277458 H 33.993044 V 3.5787928 L 32.373875,7.3744524 H 30.819239 L 29.20007,3.5787928 v 5.848953 H 27.076378 V 0.69244884 h 2.616482 l 1.965296,4.38231486 1.959428,-4.38231486 h 2.616483 z"
         id="path3902" />
      <path
         d="M 42.335282,7.7088459 V 6.3360725 q -0.428259,0.035199 -0.926916,0.099731 -0.498657,0.058666 -0.756785,0.1407973 -0.316794,0.099731 -0.486924,0.2933276 -0.164263,0.1877297 -0.164263,0.498657 0,0.2053294 0.0352,0.3343935 0.0352,0.1290642 0.175997,0.2463952 0.13493,0.1173311 0.32266,0.1759966 0.18773,0.052799 0.586655,0.052799 0.316794,0 0.639455,-0.1290642 0.328527,-0.1290641 0.574922,-0.34026 z m 0,1.0207801 q -0.17013,0.1290642 -0.422392,0.3109273 -0.252262,0.1818632 -0.475191,0.2874611 -0.310927,0.1407973 -0.645321,0.2053294 -0.334393,0.070399 -0.733319,0.070399 -0.938648,0 -1.572236,-0.5807887 -0.633588,-0.5807887 -0.633588,-1.4842379 0,-0.7215859 0.322661,-1.179177 0.32266,-0.4575912 0.915182,-0.721586 0.586655,-0.2639949 1.454905,-0.3754594 0.86825,-0.1114645 1.801032,-0.1642635 v -0.035199 q 0,-0.5455894 -0.445858,-0.7509187 -0.445858,-0.2111959 -1.314108,-0.2111959 -0.522123,0 -1.114645,0.1877297 -0.592522,0.1818631 -0.85065,0.2815945 H 38.428158 V 2.9804044 q 0.334393,-0.087998 1.085312,-0.2053293 0.756785,-0.1231977 1.513571,-0.1231977 1.801031,0 2.598882,0.5573226 0.803718,0.5514559 0.803718,1.7364996 v 4.4820462 h -2.094359 z"
         id="path3904" />
      <path
         d="M 53.3644,9.4277458 H 50.906314 L 49.05835,6.5590015 48.483428,7.2571213 V 9.4277458 H 46.371469 V 0.29938981 h 2.111959 V 5.7494173 L 50.75965,2.8396071 h 2.43462 l -2.370087,2.8394115 z"
         id="path3906" />
      <path
         d="m 60.92052,6.5238022 h -4.834039 q 0.04693,0.774385 0.586655,1.1850437 0.54559,0.4106587 1.601569,0.4106587 0.668787,0 1.296508,-0.2405287 0.627721,-0.2405287 0.991448,-0.5162566 h 0.234662 V 9.058153 q -0.71572,0.2874611 -1.349307,0.4165252 -0.633588,0.1290642 -1.402106,0.1290642 -1.982895,0 -3.038875,-0.891716 -1.055979,-0.891716 -1.055979,-2.5402173 0,-1.6309017 0.997314,-2.5812832 1.00318,-0.9562481 2.745546,-0.9562481 1.607436,0 2.41702,0.8154508 0.809584,0.8095843 0.809584,2.334888 z M 58.820295,5.2859596 Q 58.802695,4.6230392 58.491768,4.2886457 58.18084,3.9542521 57.523786,3.9542521 q -0.610121,0 -1.00318,0.3167939 -0.393059,0.3167938 -0.439992,1.0149136 z"
         id="path3908" />
      <path
         d="m 67.185997,4.8518347 h -0.18773 q -0.13493,-0.046932 -0.434125,-0.070399 -0.299194,-0.023466 -0.498657,-0.023466 -0.451724,0 -0.797851,0.058666 -0.346126,0.058666 -0.745052,0.1994628 V 9.4277458 H 62.410623 V 2.8396071 h 2.111959 V 3.8075883 Q 65.220702,3.2092 65.736958,3.0156037 66.253215,2.8161409 66.68734,2.8161409 q 0.111464,0 0.252262,0.00587 0.140797,0.00587 0.246395,0.0176 z"
         id="path3910" />
      <path
         d="M 70.494735,9.4277458 H 68.382776 V 0.29938981 h 2.111959 z"
         id="path3912" />
      <path
         d="M 74.601321,9.4277458 H 72.489362 V 2.8396071 h 2.111959 z m 0.05867,-7.5267871 h -2.22929 V 0.29938981 h 2.22929 z"
         id="path3914" />
      <path
         d="M 83.21342,9.4277458 H 81.089728 V 6.160076 q 0,-0.3989256 -0.04107,-0.7919847 -0.04107,-0.3989255 -0.140797,-0.5866552 -0.117331,-0.2170625 -0.346127,-0.3167939 -0.222929,-0.099731 -0.627721,-0.099731 -0.287461,0 -0.586655,0.093865 -0.293328,0.093865 -0.639454,0.2991942 V 9.4277458 H 76.595949 V 2.8396071 h 2.111959 v 0.7274526 q 0.563189,-0.4399915 1.079445,-0.6746536 0.522124,-0.2346621 1.155711,-0.2346621 1.067713,0 1.666101,0.6218546 0.604255,0.6218546 0.604255,1.8596972 z"
         id="path3916" />
      <path
         d="M 91.643659,6.5238022 H 86.80962 q 0.04693,0.774385 0.586655,1.1850437 0.545589,0.4106587 1.601569,0.4106587 0.668787,0 1.296508,-0.2405287 0.627721,-0.2405287 0.991448,-0.5162566 h 0.234662 V 9.058153 q -0.71572,0.2874611 -1.349307,0.4165252 -0.633588,0.1290642 -1.402107,0.1290642 -1.982894,0 -3.038874,-0.891716 -1.055979,-0.891716 -1.055979,-2.5402173 0,-1.6309017 0.997314,-2.5812832 1.00318,-0.9562481 2.745546,-0.9562481 1.607436,0 2.41702,0.8154508 0.809584,0.8095843 0.809584,2.334888 z M 89.543433,5.2859596 q -0.0176,-0.6629204 -0.328527,-0.9973139 -0.310927,-0.3343936 -0.967981,-0.3343936 -0.610121,0 -1.00318,0.3167939 -0.393059,0.3167938 -0.439992,1.0149136 z"
         id="path3918" />
    </g>
    <path
       d="m 17.769827,2.6497022 c -0.05834,0.039199 -0.11762,0.089945 -0.153203,0.1162576 -0.0672,0.044165 -0.157549,0.1219554 -0.267562,0.1966824 -0.6018,0.4838381 -1.307625,0.8305957 -2.029652,1.0935313 -0.991953,0.3541352 -2.005922,0.6503367 -3.03377,0.8501 -1.008738,0.2014039 -2.034416,0.2942091 -3.0603474,0.39534 C 8.2268435,5.3913995 7.2222273,5.4611354 6.2236394,5.3785026 5.5344508,5.329469 4.8444954,5.2256254 4.1505288,5.2365775 3.6557546,5.2596161 3.1551675,5.2977423 2.6817178,5.4537853 1.8932409,5.6932034 1.1300384,6.1126444 0.62015152,6.7740623 0.52580264,6.91785 0.42355528,7.0707802 0.37438025,7.2043841 0.23125045,7.5271208 0.15546482,7.882275 0.16624594,8.235118 c 0.007006,0.11129 0.16011285,0.16667 0.23862473,0.08806 C 0.46471297,8.253318 0.50737702,8.16706 0.57257171,8.099796 0.68378603,7.973391 0.79987356,7.883448 0.94061993,7.813874 1.3939988,7.596159 1.9181036,7.5934241 2.4064345,7.6659817 3.1700486,7.799745 3.883448,8.118153 4.624225,8.335324 c 1.72974,0.515566 3.5212139,0.845027 5.3269997,0.907915 0.6218593,0.01697 1.2459573,0.01076 1.8640923,-0.06565 0.497756,-0.05222 0.997233,-0.107435 1.482333,-0.235458 0.767155,-0.18482 1.514603,-0.512758 2.102915,-1.048344 0.278792,-0.2510852 0.515132,-0.5463768 0.732922,-0.8507595 0.0511,-0.068695 0.08701,-0.1582826 0.01016,-0.2365473 -0.07763,-0.079803 -0.283319,0.047329 -0.39369,0.1063479 C 15.365931,7.1564447 14.90387,7.3161572 14.445048,7.2587397 14.186209,7.2178897 13.939835,7.0967793 13.753608,6.9117882 14.640767,6.2779532 15.469274,5.5621705 16.218666,4.7699395 16.7707,4.1910316 17.298255,3.5887764 17.809959,2.9741 c 0.0383,-0.060452 0.08685,-0.1171172 0.111865,-0.1604501 0.04045,-0.058135 0.07219,-0.1499097 0.03875,-0.1982367 -0.04757,-0.044717 -0.136088,0.001 -0.190679,0.034628 z"
       id="icon"
       inkscape:connector-curvature="0"
       sodipodi:nodetypes="cccccccccccccccccccccccccccccccc"
       style="stroke-width:0.766075"
       inkscape:label="#icon" />
  </g>
</svg>
